/* XPM */
static char *dummy[]={
"22 21 12 1",
"f c #1a1a1a",
". c #262626",
"j c #262726",
"i c #272827",
"h c #282828",
"e c #292929",
"d c #2a2a2a",
"c c #2e2e2e",
"b c #2f2f2f",
"a c #303030",
"g c #313131",
"# c #414141",
"......................",
"######################",
"aaaaaaaaaaaaaaaaaaaaaa",
"bcdeeeeeeeeeeeeeeeedcb",
"cdeeeeeeeeeeeeeeeeeedc",
"deeffffffffffffffffeed",
"eef................fee",
"eef....gggggggg...gfee",
"eef....ffffffff...gfee",
"eef....gggggggg...gfee",
"eef....ffffffff...gfee",
"eef....gggggggg...gfee",
"eef....ffffffff...gfee",
"eef....gggggggg...gfee",
"eef....ffffffff...gfee",
"eef.gggggggggggggggfee",
"eeeffffffffffffffffeee",
"heeeeeeeeeeeeeeeeeeeei",
"iieeeeeeeeeeeeeeeeeeii",
"jjjjjjjjjjjjjjjjjjjjjj",
"jjjjjjjjjjjjjjjjjjjjjj"};
