/* XPM */
static char *dummy[]={
"2 48 2 1",
". c #222222",
"# c #383838",
".#",
".#",
".#",
".#",
".#",
".#",
".#",
".#",
".#",
".#",
".#",
".#",
".#",
".#",
".#",
".#",
".#",
".#",
".#",
".#",
".#",
".#",
".#",
".#",
".#",
".#",
".#",
".#",
".#",
".#",
".#",
".#",
".#",
".#",
".#",
".#",
".#",
".#",
".#",
".#",
".#",
".#",
".#",
".#",
".#",
".#",
".#",
".#"};
