/* XPM */
static char *dummy[]={
"2 48 2 1",
". c #202020",
"# c #222222",
".#",
".#",
".#",
".#",
".#",
".#",
".#",
".#",
".#",
".#",
".#",
".#",
".#",
".#",
".#",
".#",
".#",
".#",
".#",
".#",
".#",
".#",
".#",
".#",
".#",
".#",
".#",
".#",
".#",
".#",
".#",
".#",
".#",
".#",
".#",
".#",
".#",
".#",
".#",
".#",
".#",
".#",
".#",
".#",
".#",
".#",
".#",
".#"};
