/* XPM */
static char *dummy[]={
"14 21 18 1",
". c #262626",
"p c #262726",
"o c #272827",
"n c #282828",
"m c #282928",
"l c #292929",
"k c #292a29",
"j c #2a2a2a",
"i c #2a2b2a",
"h c #2b2b2b",
"g c #2b2c2b",
"f c #2c2c2c",
"e c #2c2d2c",
"d c #2d2d2d",
"c c #2e2e2e",
"b c #2f2f2f",
"a c #303030",
"# c #414141",
"..............",
"##############",
"aaaaaaaaaaaaaa",
"bbbbbbbbbbbbbb",
"bbbbbbbbbbbbbb",
"cccccccccccccc",
"cccccccccccccc",
"dddddddddddddd",
"dddddddddeeeee",
"ffffffffffffff",
"gggggggggggggg",
"hhhhhhhhhhhhhh",
"iiiiiiiiiiiiii",
"jjjjjjjjjjjjjj",
"kkkkkkkkkkkkkk",
"llllllllllllmm",
"mmmmmmmmmmmmmm",
"nnnnoooooooooo",
"oooooooooooooo",
"pppppppppppppp",
"pppppppppppppp"};
