/* XPM */
static char *dummy[]={
"4 21 4 1",
"b c #202020",
". c #222222",
"a c #262626",
"# c #414141",
"....",
"....",
"#...",
"abb.",
"abb.",
"abb.",
"abb.",
"abb.",
"abb.",
"abb.",
"abb.",
"abb.",
"abb.",
"abb.",
"abb.",
"abb.",
"abb.",
"abb.",
"abb.",
"abb.",
"abb."};
