/* XPM */
static char *dummy[]={
"4 21 18 1",
"# c #202020",
"a c #222222",
". c #262626",
"p c #262726",
"o c #272827",
"n c #282928",
"m c #292a29",
"l c #2a2a2a",
"k c #2a2b2a",
"j c #2b2b2b",
"i c #2b2c2b",
"h c #2c2c2c",
"g c #2c2d2c",
"f c #2d2d2d",
"e c #2e2e2e",
"d c #2f2f2f",
"c c #303030",
"b c #414141",
"..#a",
"bb#a",
"cc#a",
"dd#a",
"dd#a",
"ee#a",
"ee#a",
"ff#a",
"gg#a",
"hh#a",
"ii#a",
"jj#a",
"kk#a",
"ll#a",
"mm#a",
"nn#a",
"nn#a",
"oo#a",
"oo#a",
"pp#a",
"pp#a"};
