/* XPM */
static char *dummy[]={
"4 21 18 1",
". c #262626",
"p c #262726",
"o c #272827",
"n c #282828",
"m c #282928",
"l c #292929",
"k c #292a29",
"j c #2a2a2a",
"i c #2a2b2a",
"h c #2b2b2b",
"g c #2b2c2b",
"f c #2c2c2c",
"e c #2d2d2d",
"d c #2e2e2e",
"c c #2f2f2f",
"b c #303030",
"a c #383838",
"# c #414141",
"....",
".###",
".abb",
".acc",
".acc",
".add",
".add",
".aee",
".aee",
".aff",
".agg",
".ahh",
".aii",
".ajj",
".akk",
".all",
".amm",
".ann",
".aoo",
".app",
".app"};
