/* XPM */
static char *dummy[]={
"4 21 16 1",
". c #262626",
"n c #262726",
"m c #272827",
"l c #282928",
"k c #292929",
"j c #292a29",
"i c #2a2a2a",
"h c #2a2b2a",
"g c #2b2b2b",
"f c #2b2c2b",
"e c #2c2c2c",
"d c #2d2d2d",
"c c #2e2e2e",
"b c #2f2f2f",
"a c #383838",
"# c #414141",
"....",
"....",
"..##",
".abb",
".abb",
".acc",
".acc",
".add",
".add",
".aee",
".aff",
".agg",
".ahh",
".aii",
".ajj",
".akk",
".all",
".amm",
".amm",
".ann",
".ann"};
